<?xml version="1.0" encoding="utf-8"?>
<!-- Generator: Adobe Illustrator 21.0.1, SVG Export Plug-In . SVG Version: 6.00 Build 0)  -->
<svg version="1.1" id="Capa_1" xmlns="http://www.w3.org/2000/svg" xmlns:xlink="http://www.w3.org/1999/xlink" x="0px" y="0px"
	 viewBox="0 0 512 512" style="enable-background:new 0 0 512 512;" xml:space="preserve">
<style type="text/css">
	.st0{display:none;}
	.st1{display:inline;fill:#FFFFFF;}
	.st2{fill:#FFFFFF;}
</style>
<g class="st0">
	<path class="st1" d="M370,0H141.9c-19,0-34.6,15.6-34.6,34.6v442.8c0,19,15.6,34.6,34.6,34.6h228.3c19,0,34.6-15.5,34.6-34.6V34.6
		C404.6,15.6,389.1,0,370,0z M219.4,24.9h73c2.3,0,4.2,1.9,4.2,4.2s-1.9,4.2-4.2,4.2h-73c-2.3,0-4.2-1.9-4.2-4.2
		S217.1,24.9,219.4,24.9z M255.9,494.7c-9.6,0-17.3-7.7-17.3-17.3s7.7-17.3,17.3-17.3c9.6,0,17.3,7.7,17.3,17.3
		S265.5,494.7,255.9,494.7z M380.6,448H131.4V54.8h249.3V448z"/>
</g>
<g>
	<path class="st2" d="M512,365V136.9c0-19-15.6-34.6-34.6-34.6H34.6c-19,0-34.6,15.6-34.6,34.6v228.3c0,19,15.5,34.6,34.6,34.6
		h442.8C496.4,399.6,512,384.1,512,365z M487.1,214.4v73c0,2.3-1.9,4.2-4.2,4.2c-2.3,0-4.2-1.9-4.2-4.2v-73c0-2.3,1.9-4.2,4.2-4.2
		C485.2,210.2,487.1,212.1,487.1,214.4z M17.3,250.9c0-9.6,7.7-17.3,17.3-17.3s17.3,7.7,17.3,17.3c0,9.6-7.7,17.3-17.3,17.3
		S17.3,260.5,17.3,250.9z M64,375.6V126.3h393.2v249.3H64z"/>
</g>
</svg>
