<?xml version="1.0" encoding="utf-8"?>
<!-- Generator: Adobe Illustrator 20.0.0, SVG Export Plug-In . SVG Version: 6.00 Build 0)  -->
<svg version="1.1" id="Capa_1" xmlns="http://www.w3.org/2000/svg" xmlns:xlink="http://www.w3.org/1999/xlink" x="0px" y="0px"
	 viewBox="0 0 301.6 301.6" style="enable-background:new 0 0 301.6 301.6;" xml:space="preserve">
<style type="text/css">
	.st0{fill:#FFFFFF;}
</style>
<g>
	<path class="st0" d="M236.9,38.4v12.9h-49.8V38.4H236.9z M216,66.4h-28.9v12.9H216V66.4z M187.1,107.3h49.8V94.4h-49.8V107.3z
		 M216,122.4h-28.9v12.9H216V122.4z M187.1,163.3h49.8v-12.9h-49.8V163.3z M194.9,236.5c0,35.9-29.2,65.1-65.1,65.1
		s-65.1-29.2-65.1-65.1c0-23.3,12.2-44.4,32.1-56.1V32.9C96.8,14.8,111.6,0,129.8,0s32.9,14.8,32.9,32.9v147.5
		C182.6,192.1,194.9,213.3,194.9,236.5z M182,236.5c0-19.7-11-37.6-28.6-46.5l-3.5-1.8V32.9c0-11.1-9-20.1-20.1-20.1
		c-11.1,0-20.1,9-20.1,20.1v155.3l-3.5,1.8c-17.7,9-28.6,26.8-28.6,46.5c0,28.8,23.4,52.2,52.2,52.2S182,265.3,182,236.5z
		 M171.3,236.5c0,22.9-18.6,41.5-41.5,41.5c-22.9,0-41.5-18.6-41.5-41.5c0-18.8,12.7-35.2,30.8-40.1l2.4-0.6v-79.3h16.6v79.3
		l2.4,0.6C158.6,201.3,171.3,217.8,171.3,236.5z M131.8,208.9c-1-4.4-5.4-7.3-9.9-6.3c-15.7,3.6-26.7,17.3-26.7,33.5
		c0,4.6,3.7,8.3,8.3,8.3s8.3-3.7,8.3-8.3c0-8.2,5.8-15.5,13.8-17.3C130,217.8,132.8,213.3,131.8,208.9z"/>
</g>
</svg>
