<?xml version="1.0" encoding="utf-8"?>
<!-- Generator: Adobe Illustrator 20.0.0, SVG Export Plug-In . SVG Version: 6.00 Build 0)  -->
<svg version="1.1" id="Layer_1" xmlns="http://www.w3.org/2000/svg" xmlns:xlink="http://www.w3.org/1999/xlink" x="0px" y="0px"
	 viewBox="0 0 485.1 485.1" style="enable-background:new 0 0 485.1 485.1;" xml:space="preserve">
<style type="text/css">
	.st0{fill:#FFFFFF;}
</style>
<path class="st0" d="M388.3,195L242.5,0L96.8,195.1c-23.5,31.5-35.9,69-35.9,108.4c0,100.1,81.5,181.6,181.6,181.6
	s181.6-81.5,181.6-181.6C424.1,264,411.7,226.6,388.3,195z M242.5,455.1c-83.6,0-151.6-68-151.6-151.6c0-32.9,10.4-64.2,29.9-90.4
	L242.5,50.1L364.2,213c19.6,26.3,29.9,57.6,29.9,90.5C394.1,387,326.1,455.1,242.5,455.1z"/>
</svg>
